 ######                 ######                       
 #     # #  ####        #     # ###### #####  #    # 
 #     # # #    #       #     # #      #    # ##  ## 
 ######  # #      ##### ######  #####  #    # # ## # 
 #     # # #  ###       #       #      #####  #    # 
 #     # # #    #       #       #      #   #  #    # 
 ######  #  ####        #       ###### #    # #    # 

Plot

An ancient pestilence called The Scourge has been set free in a small town after being
entombed in a church's masonry for a century and a half...

Format : AVI
Format/Info : Audio Video Interleave
Format profile : OpenDML
File size : 1.04 GiB
Duration : 1h 29mn
Overall bit rate : 1 658 Kbps

Video
ID : 0
Format : MPEG-4 Visual
Format profile : Advanced Simple@L5
Format settings, BVOP : Yes
Format settings, QPel : No
Format settings, GMC : No warppoints
Format settings, Matrix : Default (H.263)
Codec ID : XVID
Codec ID/Hint : XviD
Duration : 1h 29mn
Bit rate : 1 204 Kbps
Width : 704 pixels
Height : 396 pixels
Display aspect ratio : 16:9
Frame rate : 23.976 fps
Color space : YUV
Chroma subsampling : 4:2:0
Bit depth : 8 bits
Scan type : Progressive
Compression mode : Lossy
Bits/(Pixel*Frame) : 0.180
Stream size : 774 MiB (73%)
Writing library : XviD 1.2.1 (UTC 2008-12-04)

Audio
ID : 1
Format : AC-3
Format/Info : Audio Coding 3
Mode extension : CM (complete main)
Codec ID : 2000
Duration : 1h 29mn
Bit rate mode : Constant
Bit rate : 448 Kbps
Channel(s) : 6 channels
Channel positions : Front: L C R, Side: L R, LFE
Sampling rate : 48.0 KHz
Bit depth : 16 bits
Compression mode : Lossy
Video delay : 42ms
Stream size : 288 MiB (27%)
Alignment : Split accross interleaves
Interleave, duration : 500 ms (11.99 video frames)
Interleave, preload duration : 500 ms
Language : English
 
http://www.imdb.com/title/tt1137477/






================================== 
http://thepiratebay.org/user/hiest
==================================






Screen Shots:
 
http://www.shotpix.com/images/49937078271896094586.png
 
http://www.shotpix.com/images/28325166936801796252.png
 
http://www.shotpix.com/images/12996804765833016168.png
 
http://www.shotpix.com/images/74492633803127386370.png

 ######                 ######                       
 #     # #  ####        #     # ###### #####  #    # 
 #     # # #    #       #     # #      #    # ##  ## 
 ######  # #      ##### ######  #####  #    # # ## # 
 #     # # #  ###       #       #      #####  #    # 
 #     # # #    #       #       #      #   #  #    # 
 ######  #  ####        #       ###### #    # #    # 